# xmcd
#
# Track frame offsets: 
#        150
#        10252
#        21125
#        33905
#        43242
#        53355
#        65787
#        77805
#        90260
#        100067
#        112012
#        123420
#        133375
#        141740
#        151992
#        163882
#        173107
#        182650
#        192672
#        204482
#        213987
#        224027
#        234382
#        247877
#        256867
#        265765
#        273802
#        284665
#        297457
#
# Disc length: 4198 seconds
#
# Revision: 8
# Processed by: cddbd v1.5.2PL0 Copyright (c) Steve Scherf et al.
# Submitted via: ExactAudioCopyFreeDBPlugin 1.0
#
DISCID=b910641d
DTITLE=Johnny Cash - The Essential Johnny Cash, 1955-1983
DYEAR=1998
DGENRE=Country
TTITLE0=Hey Porter
TTITLE1=Cry Cry Cry
TTITLE2=Folsom Prison Blues
TTITLE3=Luther Played the Boogie
TTITLE4=Get Rhythm
TTITLE5=I Walk the Line
TTITLE6=Home of the Blues
TTITLE7=Give My Love to Rose
TTITLE8=Rock Island Line
TTITLE9=Doin' My Time
TTITLE10=Big River
TTITLE11=Ballad of a Teenage Queen
TTITLE12=Guess Things Happen That Way
TTITLE13=The Ways of a Woman in Love
TTITLE14=Thanks a Lot
TTITLE15=Oh What a Dream
TTITLE16=What Do I Care
TTITLE17=All Over Again
TTITLE18=I Still Miss Someone
TTITLE19=I'd Just Be Fool Enough (To Fall)
TTITLE20=Walking the Blues
TTITLE21=Frankie's Man Johnny
TTITLE22=Tennessee Flat-Top Box
TTITLE23=Sing it Pretty Sue
TTITLE24=Pickin' Time
TTITLE25=Five Feet High and Rising
TTITLE26=The Old Account
TTITLE27=(There'll Be) Peace in the Valley (For Me)
TTITLE28=Were You There (When They Crucified My Lord)
EXTD=Colombia/Legacy - C3K 47991\nDisk 1 of 3\n YEAR: 1998 ID3G: 2
EXTT0=
EXTT1=
EXTT2=
EXTT3=
EXTT4=
EXTT5=
EXTT6=
EXTT7=
EXTT8=
EXTT9=
EXTT10=
EXTT11=
EXTT12=
EXTT13=
EXTT14=
EXTT15=
EXTT16=
EXTT17=
EXTT18=
EXTT19=
EXTT20=
EXTT21=
EXTT22=
EXTT23=
EXTT24=
EXTT25=
EXTT26=
EXTT27=
EXTT28=
PLAYORDER=
